<?xml version="1.0" encoding="UTF-8" standalone="no"?>
<svg
   xmlns:dc="http://purl.org/dc/elements/1.1/"
   xmlns:cc="http://creativecommons.org/ns#"
   xmlns:rdf="http://www.w3.org/1999/02/22-rdf-syntax-ns#"
   xmlns:svg="http://www.w3.org/2000/svg"
   xmlns="http://www.w3.org/2000/svg"
   xmlns:xlink="http://www.w3.org/1999/xlink"
   xmlns:sodipodi="http://sodipodi.sourceforge.net/DTD/sodipodi-0.dtd"
   xmlns:inkscape="http://www.inkscape.org/namespaces/inkscape"
   width="188"
   height="229"
   id="svg2"
   version="1.1"
   inkscape:version="0.48.0 r9654"
   sodipodi:docname="icons.svg">
  <sodipodi:namedview
     pagecolor="#ffffff"
     bordercolor="#666666"
     borderopacity="1"
     objecttolerance="10"
     gridtolerance="10"
     guidetolerance="10"
     inkscape:pageopacity="0"
     inkscape:pageshadow="2"
     inkscape:window-width="1371"
     inkscape:window-height="817"
     id="namedview56"
     showgrid="false"
     showguides="true"
     inkscape:guide-bbox="true"
     inkscape:zoom="2.147541"
     inkscape:cx="277.95625"
     inkscape:cy="57.995083"
     inkscape:window-x="0"
     inkscape:window-y="0"
     inkscape:window-maximized="0"
     inkscape:current-layer="g3171" />
  <defs
     id="defs4">
    <linearGradient
       id="imagebot_28">
      <stop
         stop-color="#ffeed6"
         id="imagebot_58"
         offset="0" />
      <stop
         stop-color="#ffcd8b"
         id="imagebot_57"
         offset="1" />
    </linearGradient>
    <linearGradient
       id="imagebot_23">
      <stop
         stop-color="white"
         id="imagebot_56"
         offset="0" />
      <stop
         stop-color="white"
         stop-opacity="0"
         id="imagebot_55"
         offset="1" />
    </linearGradient>
    <linearGradient
       id="imagebot_26">
      <stop
         stop-color="#ffeed6"
         id="imagebot_54"
         offset="0" />
      <stop
         stop-color="#ffcd8b"
         id="imagebot_53"
         offset="1" />
    </linearGradient>
    <linearGradient
       id="imagebot_29">
      <stop
         stop-color="black"
         id="imagebot_52"
         offset="0" />
      <stop
         stop-color="#747474"
         id="imagebot_51"
         offset="1" />
    </linearGradient>
    <linearGradient
       id="imagebot_27">
      <stop
         stop-color="#d49c56"
         id="imagebot_50"
         offset="0" />
      <stop
         stop-color="#d49c56"
         stop-opacity="0.25806"
         id="imagebot_49"
         offset="1" />
    </linearGradient>
    <linearGradient
       id="imagebot_25">
      <stop
         stop-color="#d49c56"
         id="imagebot_48"
         offset="0" />
      <stop
         stop-color="#d49c56"
         stop-opacity="0"
         id="imagebot_47"
         offset="1" />
    </linearGradient>
    <linearGradient
       id="imagebot_24">
      <stop
         stop-color="#9f5f09"
         id="imagebot_46"
         offset="0" />
      <stop
         stop-color="#9f5f09"
         stop-opacity="0"
         id="imagebot_45"
         offset="1" />
    </linearGradient>
    <linearGradient
       id="imagebot_30">
      <stop
         stop-color="#da8410"
         id="imagebot_44"
         offset="0" />
      <stop
         stop-color="#c97402"
         stop-opacity="0"
         id="imagebot_43"
         offset="1" />
    </linearGradient>
    <linearGradient
       id="imagebot_31">
      <stop
         stop-color="#664314"
         id="imagebot_42"
         offset="0" />
      <stop
         stop-color="#a06b08"
         id="imagebot_41"
         offset="1" />
    </linearGradient>
    <linearGradient
       y2="26.546721"
       x2="-175.43626"
       y1="56.764748"
       x1="-217.20595"
       id="imagebot_21"
       xlink:href="#imagebot_31"
       gradientTransform="scale(0.98383905,1.0164264)"
       gradientUnits="userSpaceOnUse" />
    <linearGradient
       y2="26.730331"
       x2="-323.85242"
       y1="12.385257"
       x1="-312.93576"
       id="imagebot_19"
       xlink:href="#imagebot_30"
       gradientTransform="scale(0.61252923,1.6325752)"
       gradientUnits="userSpaceOnUse" />
    <linearGradient
       y2="102.38533"
       x2="-102.86918"
       y1="165.6432"
       x1="-102.85202"
       id="imagebot_17"
       xlink:href="#imagebot_29"
       gradientTransform="scale(1.682281,0.59443101)"
       gradientUnits="userSpaceOnUse" />
    <radialGradient
       r="15.00893"
       fy="72.644211"
       fx="-164.86122"
       cy="72.644211"
       cx="-164.86122"
       gradientTransform="matrix(0.103799,0.0814516,-0.214019,0.272739,-132.2014,63.74477)"
       gradientUnits="userSpaceOnUse"
       id="imagebot_14"
       xlink:href="#imagebot_28" />
    <linearGradient
       y2="67.559059"
       x2="-220.03224"
       y1="48.35915"
       x1="-218.15025"
       id="imagebot_15"
       xlink:href="#imagebot_27"
       gradientTransform="scale(0.78028037,1.2815906)"
       gradientUnits="userSpaceOnUse" />
    <radialGradient
       r="21.607161"
       fy="33.69548"
       fx="-165.2417"
       cy="33.69548"
       cx="-165.2417"
       gradientTransform="matrix(0.7193,-0.0171987,0.03513213,1.469327,-47.5673,-19.60001)"
       gradientUnits="userSpaceOnUse"
       id="imagebot_11"
       xlink:href="#imagebot_26" />
    <linearGradient
       y2="4.1987529"
       x2="-190.03705"
       y1="57.336655"
       x1="-195.67476"
       id="imagebot_12"
       xlink:href="#imagebot_25"
       gradientTransform="scale(0.87544564,1.1422754)"
       gradientUnits="userSpaceOnUse" />
    <linearGradient
       y2="68.309143"
       x2="-104.73786"
       y1="80.045822"
       x1="-117.67516"
       id="imagebot_9"
       xlink:href="#imagebot_24"
       gradientTransform="scale(1.3471122,0.74232868)"
       gradientUnits="userSpaceOnUse" />
    <linearGradient
       y2="42.73024"
       x2="-196.32042"
       y1="14.718608"
       x1="-282.17038"
       id="imagebot_7"
       xlink:href="#imagebot_23"
       gradientTransform="scale(0.87633887,1.1411111)"
       gradientUnits="userSpaceOnUse" />
    <linearGradient
       inkscape:collect="always"
       xlink:href="#imagebot_31"
       id="linearGradient3897"
       gradientUnits="userSpaceOnUse"
       gradientTransform="scale(0.98383905,1.0164264)"
       x1="-217.20595"
       y1="56.764748"
       x2="-175.43626"
       y2="26.546721" />
    <linearGradient
       inkscape:collect="always"
       xlink:href="#imagebot_30"
       id="linearGradient3899"
       gradientUnits="userSpaceOnUse"
       gradientTransform="scale(0.61252923,1.6325752)"
       x1="-312.93576"
       y1="12.385257"
       x2="-323.85242"
       y2="26.730331" />
    <linearGradient
       inkscape:collect="always"
       xlink:href="#imagebot_29"
       id="linearGradient3901"
       gradientUnits="userSpaceOnUse"
       gradientTransform="scale(1.682281,0.59443101)"
       x1="-102.85202"
       y1="165.6432"
       x2="-102.86918"
       y2="102.38533" />
    <radialGradient
       inkscape:collect="always"
       xlink:href="#imagebot_28"
       id="radialGradient3903"
       gradientUnits="userSpaceOnUse"
       gradientTransform="matrix(0.103799,0.0814516,-0.214019,0.272739,-132.2014,63.74477)"
       cx="-164.86122"
       cy="72.644211"
       fx="-164.86122"
       fy="72.644211"
       r="15.00893" />
    <linearGradient
       inkscape:collect="always"
       xlink:href="#imagebot_27"
       id="linearGradient3905"
       gradientUnits="userSpaceOnUse"
       gradientTransform="scale(0.78028037,1.2815906)"
       x1="-218.15025"
       y1="48.35915"
       x2="-220.03224"
       y2="67.559059" />
    <radialGradient
       inkscape:collect="always"
       xlink:href="#imagebot_26"
       id="radialGradient3907"
       gradientUnits="userSpaceOnUse"
       gradientTransform="matrix(0.7193,-0.0171987,0.03513213,1.469327,-47.5673,-19.60001)"
       cx="-165.2417"
       cy="33.69548"
       fx="-165.2417"
       fy="33.69548"
       r="21.607161" />
    <linearGradient
       inkscape:collect="always"
       xlink:href="#imagebot_25"
       id="linearGradient3909"
       gradientUnits="userSpaceOnUse"
       gradientTransform="scale(0.87544564,1.1422754)"
       x1="-195.67476"
       y1="57.336655"
       x2="-190.03705"
       y2="4.1987529" />
    <linearGradient
       inkscape:collect="always"
       xlink:href="#imagebot_24"
       id="linearGradient3911"
       gradientUnits="userSpaceOnUse"
       gradientTransform="scale(1.3471122,0.74232868)"
       x1="-117.67516"
       y1="80.045822"
       x2="-104.73786"
       y2="68.309143" />
    <linearGradient
       inkscape:collect="always"
       xlink:href="#imagebot_23"
       id="linearGradient3913"
       gradientUnits="userSpaceOnUse"
       gradientTransform="scale(0.87633887,1.1411111)"
       x1="-282.17038"
       y1="14.718608"
       x2="-196.32042"
       y2="42.73024" />
    <linearGradient
       inkscape:collect="always"
       xlink:href="#imagebot_23"
       id="linearGradient3918"
       gradientUnits="userSpaceOnUse"
       gradientTransform="matrix(1.5411494,0,0,2.0067839,391.90734,51.94804)"
       x1="-282.17038"
       y1="14.718608"
       x2="-196.32042"
       y2="42.73024" />
    <linearGradient
       inkscape:collect="always"
       xlink:href="#imagebot_24"
       id="linearGradient3921"
       gradientUnits="userSpaceOnUse"
       gradientTransform="matrix(2.3690621,0,0,1.3054761,391.90734,51.94804)"
       x1="-117.67516"
       y1="80.045822"
       x2="-104.73786"
       y2="68.309143" />
    <radialGradient
       inkscape:collect="always"
       xlink:href="#imagebot_26"
       id="radialGradient3924"
       gradientUnits="userSpaceOnUse"
       gradientTransform="matrix(1.2649773,-0.03024602,0.06178416,2.5839918,308.25441,17.479017)"
       cx="-165.2417"
       cy="33.69548"
       fx="-165.2417"
       fy="33.69548"
       r="21.607161" />
    <linearGradient
       inkscape:collect="always"
       xlink:href="#imagebot_25"
       id="linearGradient3926"
       gradientUnits="userSpaceOnUse"
       gradientTransform="matrix(1.5395786,0,0,2.0088314,391.90734,51.94804)"
       x1="-195.67476"
       y1="57.336655"
       x2="-190.03705"
       y2="4.1987529" />
    <radialGradient
       inkscape:collect="always"
       xlink:href="#imagebot_28"
       id="radialGradient3929"
       gradientUnits="userSpaceOnUse"
       gradientTransform="matrix(0.18254328,0.14324263,-0.37637867,0.479645,159.41496,164.05104)"
       cx="-164.86122"
       cy="72.644211"
       fx="-164.86122"
       fy="72.644211"
       r="15.00893" />
    <linearGradient
       inkscape:collect="always"
       xlink:href="#imagebot_27"
       id="linearGradient3931"
       gradientUnits="userSpaceOnUse"
       gradientTransform="matrix(1.3722188,0,0,2.2538343,391.90734,51.94804)"
       x1="-218.15025"
       y1="48.35915"
       x2="-220.03224"
       y2="67.559059" />
    <linearGradient
       inkscape:collect="always"
       xlink:href="#imagebot_30"
       id="linearGradient3937"
       gradientUnits="userSpaceOnUse"
       gradientTransform="matrix(1.0772078,0,0,2.8710838,391.90734,51.94804)"
       x1="-312.93576"
       y1="12.385257"
       x2="-323.85242"
       y2="26.730331" />
    <linearGradient
       inkscape:collect="always"
       xlink:href="#imagebot_31"
       id="linearGradient3940"
       gradientUnits="userSpaceOnUse"
       gradientTransform="matrix(1.7302017,0,0,1.7875105,391.90734,51.94804)"
       x1="-217.20595"
       y1="56.764748"
       x2="-175.43626"
       y2="26.546721" />
  </defs>
  <metadata
     id="imagebot_22">image/svg+xml<rdf:RDF>
  <cc:Work
     rdf:about="">
    <dc:format>image/svg+xml</dc:format>
    <dc:type
       rdf:resource="http://purl.org/dc/dcmitype/StillImage" />
    <dc:title></dc:title>
  </cc:Work>
</rdf:RDF>
</metadata>
  <rect
     style="fill:#d7e3f4;fill-opacity:1;fill-rule:nonzero;stroke:none"
     id="rect3117"
     width="188"
     height="220"
     x="0"
     y="9"
     inkscape:export-filename="/Users/timinman/medicode/public/img/female.png"
     inkscape:export-xdpi="81.379997"
     inkscape:export-ydpi="81.379997" />
  <path
     d="m 6.6765707,137.23298 c 13.1299123,0.12539 28.2228693,-2.88926 31.2342123,-15.83589 2.942105,-12.6489 1.408006,-78.121117 48.04107,-79.649765 44.750867,-1.466938 56.433767,35.965909 60.281507,56.464398 12.36322,65.864057 -3.89171,110.213487 -97.561882,83.518467 -10.623066,-6.13325 -16.99962,-6.42207 -24.221282,-16.16134 6.354977,0.17363 9.680515,0.59952 10.634251,-5.66346 -8.461718,0.34544 -16.741719,-0.42781 -19.969618,-15.12238 15.426164,2.13178 22.509351,-4.54242 29.089818,-14.65594 -7.811011,12.27153 -17.007552,19.15692 -37.5280763,7.10591 z"
     id="imagebot_20"
     inkscape:connector-curvature="0"
     style="fill:#87aade;fill-rule:evenodd;stroke-width:1px;fill-opacity:1"
     inkscape:export-filename="/Users/timinman/medicode/public/img/female.png"
     inkscape:export-xdpi="81.379997"
     inkscape:export-ydpi="81.379997" />
  <path
     d="m 0,229 c 0,0 6.5224098,-36.6924 21.348936,-44.06373 l 68.774721,-20.88365 71.829643,19.8226 C 174.59279,188.41278 181.95732,215.0658 188,229 125.89696,229 44.646612,229.1823 0,229 z"
     id="imagebot_16"
     inkscape:connector-curvature="0"
     style="fill:#99b7e4;fill-rule:evenodd;stroke:none;stroke-width:1.75862264999999995px;fill-opacity:1"
     sodipodi:nodetypes="cccccc"
     inkscape:export-filename="/Users/timinman/medicode/public/img/female.png"
     inkscape:export-xdpi="81.379997"
     inkscape:export-ydpi="81.379997" />
  <path
     style="fill:#87aade;fill-rule:evenodd;stroke:none;stroke-width:1.75862264999999995px;fill-opacity:1"
     d="M 99.71875 67.9375 L 75.5 103.9375 L 74.84375 89.9375 L 68.625 100.59375 C 64.41688 95.485114 56.347807 97.176067 53.53125 101.03125 C 54.428798 115.09503 54.818723 129.15497 57.96875 143.21875 C 57.96875 143.21875 63.836053 149.82027 70.15625 155.5 C 70.382128 161.86967 70.13701 167.84969 67.03125 173.46875 L 77.09375 229.0625 L 100.1875 228.75 L 118.0625 169.5625 L 116.8125 149.4375 C 120.42845 146.43105 123.03125 144.125 123.03125 144.125 C 130.53062 113.7184 133.09998 84.911903 99.71875 67.9375 z "
     id="imagebot_13"
     inkscape:export-filename="/Users/timinman/medicode/public/img/female.png"
     inkscape:export-xdpi="81.379997"
     inkscape:export-ydpi="81.379997" />
  <path
     d="m 138.34502,134.7896 c -6.34286,14.97099 -23.4647,20.91111 -39.726037,18.2143 15.752567,12.40659 39.204057,6.5916 44.750657,-14.75987"
     id="imagebot_8"
     inkscape:connector-curvature="0"
     style="fill:#87aade;fill-rule:evenodd;stroke-width:1px;fill-opacity:1"
     inkscape:export-filename="/Users/timinman/medicode/public/img/female.png"
     inkscape:export-xdpi="81.379997"
     inkscape:export-ydpi="81.379997" />
  <path
     d="m 53.450993,101.11097 c 1.483785,13.8372 2.245093,27.43357 5.366894,41.81674 7.95455,8.24968 24.214863,26.24994 33.864074,20.76258 6.149288,-1.40139 7.894459,-3.43193 11.426279,-5.20724 -21.230196,6.30753 -29.49778,-4.90485 -40.440792,-17.74845 l -7.224159,-41.984457 -2.992296,2.360827 z"
     id="imagebot_6"
     inkscape:connector-curvature="0"
     style="fill:url(#linearGradient3918);fill-rule:evenodd;stroke-width:1px"
     inkscape:export-filename="/Users/timinman/medicode/public/img/female.png"
     inkscape:export-xdpi="81.379997"
     inkscape:export-ydpi="81.379997" />
  <path
     style="fill:#3a6ab2;fill-opacity:1;fill-rule:nonzero;stroke:none"
     d="m 55.904028,131.89328 c 1.768907,9.35901 2.788148,11.63515 7.374535,16.92294 4.586388,5.28779 7.930567,8.36309 14.928336,13.42342 -11.865272,-7.11742 -11.472815,-7.41188 -16.455873,-12.6881 -4.983058,-5.27621 -4.757902,-7.13668 -5.846998,-17.65826 z"
     id="path3962"
     inkscape:connector-curvature="0"
     sodipodi:nodetypes="czczc"
     inkscape:export-filename="/Users/timinman/medicode/public/img/female.png"
     inkscape:export-xdpi="81.379997"
     inkscape:export-ydpi="81.379997" />
  <g
     id="g3171"
     transform="matrix(2.4191463,0,0,2.4410532,202.38253,10.667737)"
     inkscape:export-filename="/Users/timinman/medicode/public/img/male.png"
     inkscape:export-xdpi="81.379997"
     inkscape:export-ydpi="81.379997">
    <g
       id="g3142">
      <title
         id="title3144">Layer 1</title>
      <rect
         width="77.51825"
         height="90"
         x="0.041060001"
         y="0"
         id="imagebot_6-0"
         style="fill:#d7e3f4;stroke-width:3.10520005" />
    </g>
    <g
       id="g3147">
      <title
         id="title3149">Layer 2</title>
      <path
         d="m 22.5411,70.6204 c 0,0 -11.2925,3.032 -20.03654,7.5548 C 1.31387,78.7911 0.55685,78.8914 0,79.8175 0.01797,82.386 -0.09861,90.2628 0.04106,90.1232 L 77.6415,90.0411 c 0.0032,-2.4225 0.0957,-10.3907 0,-11.5785 C 77.012,77.5622 76.9024,77.5182 76.0813,77.0255 75.2601,76.5328 51.4462,69.3066 51.4462,69.3066 l -28.9051,1.3138 z"
         id="imagebot_5"
         inkscape:connector-curvature="0"
         style="opacity:0.77569999;fill:#87aade" />
    </g>
    <g
       id="g3152">
      <title
         id="title3154">Layer 3</title>
      <path
         d="m 55.0778,48.966 c 0.0374,-0.1024 0.0816,-0.1388 0.1131,-0.2341 0.0525,-0.1638 0.072,-0.3365 0.1018,-0.5089 0.0409,-0.2356 0.0873,-0.4717 0.1273,-0.7124 0.0424,-0.2535 0.0749,-0.5184 0.1273,-0.7633 0.0524,-0.2449 0.1202,-0.4699 0.2036,-0.687 0.1198,-0.3135 0.2198,-0.5951 0.3053,-0.8651 0.1371,-0.4331 0.2665,-0.9528 0.3562,-1.5011 0.0675,-0.4059 0.1284,-0.839 0.0509,-1.2722 -0.0434,-0.2698 -0.0658,-0.5056 -0.3169,-0.6478 -0.0935,-0.0482 -0.2067,-0.076 -0.3054,-0.0764 -0.1644,-7e-4 -0.3146,0.0424 -0.458,0.1019 -0.183,0.0742 -0.3608,0.1975 -0.5088,0.3053 -0.1251,0.0911 -0.3131,0.2764 -0.4453,0.3486 l -0.3588,0.0482 c 0.0299,-0.0831 -0.036,-0.2468 -0.0145,-0.3461 0.2841,-1.3692 0.7869,-6.0107 0.7642,-8.283 -0.052,-5.1799 1.4992,-7.2395 -2.245,-11.7651 -0.9414,-1.1378 -2.3735,-2.4721 -3.6029,-3.3204 0.6474,0.1689 1.1505,0.2442 1.8777,0.603 -1.5992,-1.2922 -3.0188,-1.9975 -4.2185,-2.6156 0.5774,0.0891 1.3146,0.2759 1.9159,0.3714 -3.8775,-1.9167 -6.5193,-2.1417 -9.0554,-2.1245 l -0.6412,0.0688 c -1.1157,0.0073 -1.5715,0.0672 -2.3713,0.2366 -2.5001,-0.1119 -6.0105,-0.4214 -9.5438,1.2925 0.5,-0.028 0.9237,-0.0469 1.323,-0.0509 -1.5824,0.7375 -3.3445,1.6893 -5.3202,3.8267 0.4471,-0.2453 0.839,-0.4574 1.2212,-0.6361 -1.5088,1.4251 -3.1865,3.6814 -3.9946,5.7452 -0.8861,2.263 -0.6912,12.2376 -0.3461,13.9686 0.3184,1.5966 0.0127,2.6329 -0.0215,2.7716 -0.0127,-0.0073 -0.0127,-0.0197 -0.0254,-0.0255 -0.2278,-0.1095 -0.5828,-0.2331 -0.8569,-0.1104 -0.272,0.144 -0.3707,0.3986 -0.424,0.6696 -0.0969,0.4477 0.0127,0.87 0.1018,1.272 0.1423,0.6708 0.3114,1.3239 0.4664,1.8321 0.0565,0.1852 0.1271,0.3712 0.1952,0.5852 0.0674,0.2108 0.128,0.4359 0.1611,0.6785 0.0333,0.2425 0.0471,0.5171 0.0678,0.7718 0.0188,0.2347 0.0128,0.4461 0.0339,0.6784 0.0145,0.1704 0.0181,0.3432 0.0592,0.5089 0.0451,0.1735 0.1144,0.3174 0.2021,0.4548 0.0074,0.0109 0.019,0.0405 0.0255,0.0509 0.0182,0.1411 0.1666,0.3399 0.1691,0.6478 0.0018,0.2386 0.0848,0.5204 0.0599,0.7966 -0.0244,0.2762 -0.0642,0.5472 -0.1019,0.8064 -0.0276,0.1871 -0.0491,0.3654 -0.0547,0.5265 -0.0055,0.1148 0.0091,0.2507 0.0254,0.3816 0.0364,0.3045 0.1339,0.5852 0.3191,0.8671 0.1086,0.1677 0.0475,0.1779 0.227,0.2656 0.1535,0.0733 0.2921,0.1257 0.4423,0.1448 0.1954,0.0252 0.3929,0.0516 0.552,0.1018 0.2176,0.0685 0.3779,0.1166 0.5484,0.2505 0.2359,0.1852 0.4358,0.3132 0.7754,0.5623 0.0271,0.0855 0.0831,0.152 0.111,0.2446 0.0947,0.3148 0.2416,0.7027 0.4071,1.0686 0.2518,0.556 0.6078,1.1854 0.942,1.7645 l 0.0127,0.2707 c 1.2685,5.6405 0.362,10.262 -2.0834,13.7791 4.2166,8.6263 10.8547,7.8465 16.7152,8.1331 5.7473,0.2811 14.4541,-4.7524 13.8682,-8.184 -1.971,-3.3413 -2.3588,-8.036 -1.8164,-12.1741 0.1527,-1.1271 0.2722,-1.5706 0.5442,-2.1459 0.2497,-0.5536 0.4168,-0.8628 0.6517,-1.3494 0.3241,-0.6734 0.4985,-1.3582 0.6106,-1.9337 0.0164,-0.0813 0.0364,-0.1835 0.0697,-0.2864 0.0991,-0.0703 0.2233,-0.1334 0.2827,-0.1715 0.1751,-0.1128 0.4339,-0.2661 0.7379,-0.3817 0.09,-0.0338 0.183,-0.0653 0.2799,-0.1273 0.1038,-0.0685 0.1868,-0.1802 0.2544,-0.2799 0.1853,-0.269 0.3056,-0.5753 0.3562,-0.8905 0.0473,-0.3013 0.0994,-0.5623 0.09,-0.7926 -8e-4,-0.0269 8e-4,-0.0482 0,-0.0764 -0.0127,-0.2983 -0.0967,-0.6811 -0.0647,-1.0432 0.0314,-0.358 0.1067,-0.7125 0.1782,-0.9669 0.0713,-0.2543 0.1193,-0.3228 0.1667,-0.4529 l 0,0 0,1e-4 0,0 10e-5,0 -10e-5,0 -0.0019,0 z"
         id="imagebot_4"
         inkscape:connector-curvature="0"
         style="fill:#87aade;fill-rule:nonzero" />
    </g>
    <g
       id="g3157">
      <title
         id="title3159">Layer 4</title>
      <path
         d="m 39.3544,14.8261 c -1.1158,0.0073 -2.0754,0.1104 -2.8751,0.2799 -2.672,-0.3267 -6.8837,-0.1878 -10.2539,1.7302 0.5001,-0.028 0.9238,-0.0471 1.3231,-0.0509 -1.5824,0.7375 -3.3929,2.0099 -5.3686,4.1473 0.4471,-0.2453 0.8645,-0.4573 1.2467,-0.6361 -1.5088,1.4251 -2.7286,3.1522 -3.5367,5.216 -0.886,2.2629 -0.5995,12.2376 -0.2544,13.9686 0.3184,1.5966 0.1106,2.5329 0.0764,2.6716 -0.0127,-0.0073 -0.0127,-0.0195 -0.0255,-0.0255 -0.2278,-0.1095 -0.54,-0.199 -0.8142,-0.0764 -0.272,0.1441 -0.3792,0.4415 -0.4325,0.7124 -0.0969,0.4478 0.0127,0.8957 0.1018,1.2977 0.1423,0.6708 0.3285,1.2982 0.4835,1.8065 0.0565,0.1852 0.1102,0.3967 0.178,0.6107 0.0675,0.2107 0.1195,0.4444 0.1526,0.6869 0.0333,0.2426 0.0556,0.4831 0.0764,0.7379 0.0187,0.2347 0.0303,0.4801 0.0509,0.7124 0.0145,0.1704 0.0344,0.3432 0.0764,0.5089 0.0451,0.1735 0.1158,0.3206 0.2035,0.458 0.0073,0.0109 0.0186,0.0145 0.0255,0.0254 0.0182,0.1412 0.1311,0.3537 0.134,0.6616 0.0018,0.2385 0.0767,0.5125 0.052,0.7887 -0.0244,0.2762 -0.0642,0.5551 -0.1018,0.8142 -0.0277,0.1871 -0.0455,0.3733 -0.0509,0.5343 -0.0055,0.1148 0.0109,0.2253 0.0254,0.3563 0.0364,0.3044 0.0791,0.5897 0.2643,0.8716 0.1086,0.1677 0.2177,0.2418 0.3971,0.3296 0.1535,0.0733 0.3942,0.1523 0.5444,0.1714 0.1954,0.0253 0.4007,0.0517 0.5598,0.1019 0.2176,0.0686 0.3692,0.1547 0.4834,0.229 -0.1082,-0.082 -0.2727,-0.1961 -0.4834,-0.2799 -0.1606,-0.0633 -0.3403,-0.1148 -0.5343,-0.1528 -0.147,-0.0298 -0.3936,-0.0998 -0.519,-0.1715 -0.1475,-0.0802 -0.2273,-0.1478 -0.3208,-0.304 -0.1584,-0.2699 -0.1867,-0.5171 -0.2134,-0.7954 -0.0193,-0.1908 -0.0127,-0.3965 0,-0.5597 0.0073,-0.0977 0.0146,-0.1904 0.0255,-0.3053 0.0256,-0.2469 0.0451,-0.536 0.0509,-0.8142 0.0055,-0.2783 -0.0807,-0.5443 -0.1029,-0.7888 -0.0253,-0.2796 -0.1532,-0.4853 -0.1849,-0.6361 0.0749,0.1091 0.1535,0.2135 0.229,0.3053 0.2217,0.271 0.3934,0.4907 0.5089,0.6616 0.1154,0.1707 0.178,0.2798 0.178,0.2798 0,0 -0.0455,-0.1034 -0.1528,-0.2798 -0.1071,-0.1764 -0.2726,-0.4301 -0.4834,-0.7125 -0.0851,-0.1144 -0.2002,-0.22 -0.2799,-0.3562 -0.0796,-0.1362 -0.1444,-0.2952 -0.178,-0.458 -0.0333,-0.156 -0.0422,-0.3364 -0.0509,-0.5088 -0.0128,-0.23 -0.0146,-0.4488 -0.0255,-0.687 -0.0109,-0.2498 -0.0238,-0.5137 -0.0509,-0.7633 -0.0269,-0.2497 -0.0591,-0.48 -0.1273,-0.7124 -0.1037,-0.3522 -0.1948,-0.6997 -0.2799,-0.9924 -0.1211,-0.4164 -0.2635,-0.8871 -0.3816,-1.3994 -0.0268,-0.1191 -0.0495,-0.2351 -0.0764,-0.3562 0.0738,0.1886 0.1651,0.282 0.3053,0.4326 0.3743,0.402 0.6361,0.0254 0.6361,0.0254 0.3052,0.236 0.8266,0.9825 1.7302,2.977 -0.0684,-0.1355 -0.1861,-0.1876 -0.3054,-0.2545 -0.2181,-0.1224 -0.6495,0.0851 -0.6869,0.4071 -0.0651,0.5595 0.3787,2.0857 0.4325,1.7811 0.0404,-0.2286 -0.2437,-0.9948 -0.0764,-1.3486 0.0871,-0.1841 0.4403,-0.2328 0.7125,-0.1273 0.0718,0.0281 0.0454,-0.1743 0,-0.3053 -0.0012,-0.0055 0.0012,-0.0216 0,-0.0254 C 20.694,45.381 20.0488,44.0815 19.508,43.4501 19.1878,43.0762 18.8504,42.88 18.6938,42.8904 c -0.0634,0.0055 -0.1033,0.1131 -0.1273,0.2035 -8e-4,-0.098 0.0055,-0.1836 0.0255,-0.2798 0.0562,-0.2553 0.1419,-0.53 0.3562,-0.6361 0.2023,-0.1128 0.467,-0.0519 0.687,0.0509 0.9489,0.4428 1.2444,1.0971 1.6793,1.8956 0.2138,0.3926 0.6683,1.6641 0.9287,2.7097 -0.1315,-1.1217 -0.4484,-2.0778 -0.5598,-2.4172 l 1.463,0.0255 c 0.0128,0.2907 0.0362,0.5773 0.1019,0.8651 0.1031,0.4598 0.325,0.9188 0.687,1.2467 0.4863,0.4293 1.1101,0.6057 1.7047,0.7633 0.9648,0.2617 1.9565,0.3798 2.9515,0.3817 1.3094,0.0036 2.6244,-0.0924 3.9183,-0.3053 0.4591,-0.0755 0.9228,-0.1677 1.3739,-0.3054 0.1513,-0.046 0.309,-0.0816 0.458,-0.1527 0.091,-0.04 0.193,-0.1046 0.2799,-0.2036 0.239,-0.2959 0.349,-0.6556 0.4326,-0.9923 0.1007,-0.3909 0.1558,-0.7819 0.229,-1.1704 0.0507,-0.2725 0.0411,-0.5742 -0.0255,-0.8396 0.7591,-0.5693 1.6823,-0.6356 2.1373,-0.6361 0.4735,-5e-4 1.2663,0.1729 2.01,0.5597 0.0012,0.1097 0.0055,0.2226 0.0255,0.3308 0.0782,0.3874 0.1738,0.7809 0.2799,1.1705 0.088,0.3355 0.1896,0.6995 0.4325,0.9922 0.0882,0.0979 0.1884,0.1648 0.2799,0.2036 0.15,0.0691 0.3062,0.1087 0.458,0.1526 0.4529,0.1316 0.9138,0.2106 1.3739,0.2799 1.2967,0.1958 2.6091,0.2748 3.9184,0.2544 0.9948,-0.0146 1.9902,-0.1328 2.9514,-0.4071 0.5925,-0.1655 1.2242,-0.3785 1.7048,-0.8142 0.3575,-0.3328 0.5645,-0.7856 0.6615,-1.2467 0.0624,-0.2915 0.0946,-0.597 0.1018,-0.8906 l 2.0087,-0.4325 c -0.2291,0.4466 -0.4269,1.1319 -0.6093,1.8574 0.2607,-0.7056 0.6771,-1.5628 0.9415,-2.0101 0.066,-0.1118 0.2355,-0.3782 0.407,-0.5343 0.1723,-0.1558 0.3676,-0.3108 0.5853,-0.458 0.15,-0.1009 0.3119,-0.1921 0.4834,-0.2544 0.2252,-0.0764 0.4822,-0.1661 0.6615,-0.0509 0.1186,0.0612 0.2056,0.1858 0.2545,0.3307 -0.0517,-0.0249 -0.1244,-0.0267 -0.2036,-0.0254 -0.1861,0.0036 -0.456,0.0844 -0.7633,0.3308 -0.6268,0.5022 -1.1805,1.6095 -2.0355,4.3254 -0.0127,0.0407 -0.0127,0.0856 -0.0255,0.1273 -0.0109,0.0738 0.0018,0.1695 0.051,0.1527 0.4464,-0.1565 0.7838,-0.0055 0.8396,0.3563 0.0591,0.3828 -0.4189,1.0605 -0.3053,1.1449 0.1166,0.0866 0.2761,-0.2779 0.4071,-0.5852 0.1484,-0.348 0.2696,-0.6593 0.2544,-0.9414 -0.0362,-0.671 -0.5459,-1.0142 -0.9668,-0.6107 0.9806,-2.4898 1.4169,-3.0414 1.7301,-3.2567 0,0 0.127,0.3027 0.5852,0 0.2024,-0.1337 0.4124,-0.2934 0.5089,-0.5089 0.0207,0.3401 -0.0414,0.6802 -0.1018,1.0177 -0.1246,0.6858 -0.3094,1.3164 -0.4835,1.832 -0.0532,0.1576 -0.1136,0.3297 -0.178,0.5088 -0.08,0.2234 -0.1308,0.46 -0.178,0.7125 -0.0473,0.2525 -0.0933,0.5282 -0.1273,0.7887 -0.0319,0.2416 -0.0446,0.4756 -0.0764,0.7124 -0.0237,0.1739 -0.058,0.3522 -0.1019,0.5089 -0.0423,0.1599 -0.1249,0.2841 -0.229,0.4071 -0.104,0.123 -0.223,0.2549 -0.3307,0.3562 -0.1319,0.1226 -0.2535,0.2234 -0.3562,0.3308 -0.1028,0.1075 -0.1889,0.1951 -0.2545,0.2799 0.0678,-0.0782 0.1777,-0.1571 0.2799,-0.2544 0.1071,-0.1021 0.2186,-0.2134 0.3562,-0.3308 0.1124,-0.0953 0.2431,-0.2069 0.3562,-0.3308 0.1131,-0.1238 0.2217,-0.256 0.2799,-0.4325 0.0526,-0.1639 0.072,-0.3366 0.1018,-0.5089 0.041,-0.2356 0.0873,-0.4718 0.1273,-0.7124 0.0424,-0.2535 0.075,-0.5185 0.1273,-0.7633 0.0524,-0.2449 0.1203,-0.47 0.2036,-0.687 0.1198,-0.3135 0.2198,-0.6205 0.3053,-0.8905 0.1371,-0.4332 0.2665,-0.9528 0.3562,-1.5012 0.0675,-0.4059 0.1284,-0.839 0.051,-1.2722 -0.0435,-0.2698 -0.1306,-0.5703 -0.3817,-0.7124 -0.0935,-0.0482 -0.2067,-0.076 -0.3053,-0.0764 -0.1644,-8e-4 -0.3146,0.0676 -0.458,0.1273 -0.183,0.0742 -0.3609,0.172 -0.5089,0.2799 -0.1251,0.0911 -0.2215,0.1848 -0.3308,0.2799 l -0.3816,0.0507 c 0.0298,-0.0831 0.0558,-0.1806 0.0763,-0.2799 0.2842,-1.3692 1.0405,-5.9206 1.0178,-8.1929 -0.0519,-5.1799 1.1998,-7.3312 -2.5444,-11.8567 -0.9413,-1.1378 -2.0528,-2.154 -3.2822,-3.0024 0.6473,0.169 1.3336,0.43 2.0609,0.7888 -1.5993,-1.2922 -2.973,-2.1807 -4.1728,-2.7989 0.5775,0.0892 1.1543,0.1845 1.7557,0.2799 -3.8775,-1.9167 -7.1835,-2.4853 -9.7195,-2.468 l 0,0 0,2e-4 z m 6.0047,9.4905 c 1.3537,0.0012 2.461,0.2896 3.1296,1.1704 1.9449,2.5626 2.488,4.4448 2.7225,6.6154 0.2345,2.1706 0.188,3.7601 0.9414,4.9615 0.7007,1.1175 0.8522,4.4819 0.7378,5.4196 l -1.5011,0.1527 c -0.0741,-0.1293 -0.1461,-0.2289 -0.2545,-0.3308 -0.3295,-0.3075 -0.7463,-0.5026 -1.1449,-0.6615 -0.6836,-0.2749 -1.4187,-0.3984 -2.1373,-0.4834 -0.6142,-0.0733 -1.2147,-0.1177 -1.832,-0.1273 -0.4893,-0.0073 -0.995,0.0283 -1.4757,0.0764 -0.5837,0.058 -1.152,0.1318 -1.7302,0.2289 -0.5336,0.0897 -1.0766,0.1907 -1.6029,0.3308 -0.2026,0.0538 -0.4106,0.1287 -0.6107,0.2035 -0.1374,0.0504 -0.2727,0.1106 -0.4071,0.2036 -0.3299,0.2325 -0.5673,0.5585 -0.6869,0.9414 -0.0317,0.1009 -0.0604,0.2001 -0.0764,0.3053 -0.6087,-0.3071 -1.4526,-0.4877 -2.1119,-0.4834 -0.6821,0.0055 -1.6912,0.2551 -2.1627,0.5852 -0.1371,-0.3077 -0.3563,-0.5971 -0.6361,-0.7887 -0.1355,-0.0912 -0.2944,-0.1295 -0.4325,-0.1781 -0.201,-0.0722 -0.4074,-0.1269 -0.6107,-0.178 -0.5281,-0.1331 -1.0427,-0.2483 -1.5775,-0.3308 -0.5794,-0.0894 -1.1711,-0.1535 -1.7556,-0.2035 -0.4813,-0.0415 -0.9611,-0.0648 -1.4503,-0.051 -0.6171,0.0182 -1.2442,0.0459 -1.8574,0.1273 -0.7174,0.0946 -1.4319,0.2504 -2.1118,0.5343 -0.3965,0.1643 -0.8196,0.3497 -1.145,0.6616 -0.2076,0.2004 -0.3469,0.4537 -0.4071,0.7379 l -0.8905,-0.051 c -0.2085,-0.584 -0.8091,-2.38 -0.6615,-3.384 0.1447,-0.9849 0.827,-0.9933 0.9159,-2.4171 0.089,-1.4238 -0.2561,-6.6532 0.1781,-8.1166 0.4343,-1.4633 2.3594,-4.4418 4.071,-4.9615 2.9592,-0.8985 5.3753,0.8347 9.694,0.6615 2.8342,-0.1136 6.2955,-1.1737 8.8799,-1.1704 l -1e-4,10e-5 z m -0.0764,16.971 c 0.2383,-0.0146 0.4757,-0.0055 0.7125,0 0.6098,0.0091 1.2274,0.0295 1.8319,0.1018 0.7096,0.0855 1.4107,0.2201 2.061,0.4835 0.3883,0.1587 0.7805,0.336 1.0686,0.6106 0.2258,0.2138 0.3769,0.511 0.3816,0.8142 0.0091,0.4158 -0.0163,0.8246 -0.1018,1.2213 -0.094,0.4256 -0.2748,0.8386 -0.5852,1.1195 -0.4213,0.3928 -0.9925,0.5923 -1.5775,0.7634 -0.9354,0.2676 -1.9231,0.3661 -2.9006,0.3816 -1.2974,0.02 -2.5863,-0.0354 -3.8674,-0.229 -0.4555,-0.0689 -0.9126,-0.1526 -1.3486,-0.2799 -0.1464,-0.0429 -0.3005,-0.0913 -0.4325,-0.1525 -0.0851,-0.0428 -0.1659,-0.0768 -0.2036,-0.1273 -0.2038,-0.2339 -0.2881,-0.5599 -0.3816,-0.8906 -0.0127,-0.0449 -0.0146,-0.1075 -0.0253,-0.1527 0.0316,-0.0901 0.0206,-0.24 0,-0.4326 0.1355,-0.0691 0.212,-0.226 0.178,-0.3816 -0.0343,-0.1577 -0.1762,-0.2761 -0.3307,-0.2799 -0.0362,-0.1002 -0.0626,-0.1894 -0.1019,-0.2544 2e-4,-0.0182 -7e-4,-0.0328 0,-0.051 l 0,-0.0763 c 0.011,-0.1301 0.0377,-0.2569 0.0764,-0.3817 0.1037,-0.3315 0.3279,-0.6167 0.6107,-0.8142 0.1018,-0.0729 0.2234,-0.1273 0.3562,-0.178 0.1886,-0.0708 0.3867,-0.1251 0.5852,-0.1781 0.5153,-0.1373 1.0226,-0.2416 1.5521,-0.3307 0.5729,-0.0964 1.1523,-0.1717 1.7301,-0.229 0.2388,-0.0237 0.4742,-0.0611 0.7124,-0.0764 l 0,-10e-5 z m -16.5893,0.6361 c 0.1184,-0.0036 0.2375,-0.0012 0.3562,0 0.3563,0.0055 0.7101,0.0458 1.0687,0.0764 0.5785,0.0496 1.156,0.1147 1.7302,0.2035 0.5305,0.082 1.0604,0.1748 1.5775,0.3053 0.1991,0.0504 0.3956,0.1099 0.5852,0.1781 0.1334,0.0489 0.2534,0.1065 0.3562,0.178 0.2854,0.1938 0.5025,0.4841 0.6106,0.8142 0.0538,0.1659 0.0975,0.3357 0.1019,0.5089 -0.0382,0.0655 -0.0924,0.154 -0.1273,0.2544 -0.1563,0.0055 -0.2982,0.1202 -0.3308,0.2799 -0.0315,0.154 0.0702,0.2876 0.2035,0.3562 -0.0185,0.1947 -0.0073,0.3678 0.0255,0.458 -0.0109,0.0469 -0.0389,0.0807 -0.0509,0.1273 -0.0891,0.3319 -0.181,0.6795 -0.3817,0.916 -0.0369,0.0511 -0.0936,0.0831 -0.178,0.1273 -0.1311,0.0631 -0.2866,0.1078 -0.4326,0.1527 -0.4343,0.1331 -0.8686,0.2049 -1.323,0.2799 -1.2785,0.2106 -2.5954,0.3081 -3.8929,0.3053 -0.9777,-0.0018 -1.9363,-0.1009 -2.8752,-0.3562 -0.5872,-0.1633 -1.2019,-0.3507 -1.6283,-0.7378 -0.3142,-0.2768 -0.4855,-0.6698 -0.5853,-1.0941 -0.0914,-0.3956 -0.1058,-0.8309 -0.1018,-1.2468 8e-4,-0.3032 0.1333,-0.5974 0.3562,-0.8142 0.2844,-0.2784 0.657,-0.4468 1.0432,-0.6106 0.6466,-0.272 1.3526,-0.4138 2.061,-0.5089 0.6034,-0.0804 1.2222,-0.1351 1.8319,-0.1527 l 0,0 z"
         id="imagebot_3"
         inkscape:connector-curvature="0"
         style="fill:#87aade" />
    </g>
    <g
       id="g3162">
      <title
         id="title3164">Layer 5</title>
      <path
         d="m 30.7938,62.9836 c 0,0 2.8741,4.5575 7.062,4.6806 4.188,0.1232 8.2938,-4.8038 8.2938,-4.8038 0,0 -3.1615,5.0912 -7.8011,5.0912 -4.6396,0 -7.5547,-4.968 -7.5547,-4.968 z"
         id="imagebot_2"
         inkscape:connector-curvature="0"
         style="fill:#3062ad" />
    </g>
  </g>
</svg>
