<svg width="78" height="90" xmlns="http://www.w3.org/2000/svg">

 <metadata id="imagebot_7">This is my vectorized portrait that I use on my websites and profiles.JakubJankiewiczKubajcubicportraitstripesvectorizedPolandpeoplefaceheadmanavatarcolourOpen Clip Art LibraryJakub JankiewiczJakub Jankiewiczimage/svg+xmlpl</metadata>
 <g>
  <title>Layer 1</title>
  <rect fill="#d7e3f4" stroke-width="3.1052" id="imagebot_6" y="0" x="0.04106" height="90" width="77.51825"/>
 </g>
 <g>
  <title>Layer 2</title>
  <path opacity="0.7757" fill="#87aade" id="imagebot_5" d="M 22.5411 70.6204 C 22.5411 70.6204 11.2486 73.6524 2.50456 78.1752 C 1.31387 78.7911 0.55685 78.8914 0 79.8175 C 0.01797 82.386 -0.09861 90.2628 0.04106 90.1232 L 77.6415 90.0411 C 77.6447 87.6186 77.7372 79.6504 77.6415 78.4626 C 77.012 77.5622 76.9024 77.5182 76.0813 77.0255 C 75.2601 76.5328 51.4462 69.3066 51.4462 69.3066 L 22.5411 70.6204 Z"/>
 </g>
 <g>
  <title>Layer 3</title>
  <path fill="#87aade" fill-rule="nonzero" id="imagebot_4" d="M 55.0778 48.966 C 55.1152 48.8636 55.1594 48.8272 55.1909 48.7319 C 55.2434 48.5681 55.2629 48.3954 55.2927 48.223 C 55.3336 47.9874 55.38 47.7513 55.42 47.5106 C 55.4624 47.2571 55.4949 46.9922 55.5473 46.7473 C 55.5997 46.5024 55.6675 46.2774 55.7509 46.0603 C 55.8707 45.7468 55.9707 45.4652 56.0562 45.1952 C 56.1933 44.7621 56.3227 44.2424 56.4124 43.6941 C 56.4799 43.2882 56.5408 42.8551 56.4633 42.4219 C 56.4199 42.1521 56.3975 41.9163 56.1464 41.7741 C 56.0529 41.7259 55.9397 41.6981 55.841 41.6977 C 55.6766 41.697 55.5264 41.7401 55.383 41.7996 C 55.2 41.8738 55.0222 41.9971 54.8742 42.1049 C 54.7491 42.196 54.5611 42.3813 54.4289 42.4535 L 54.0701 42.5017 C 54.1 42.4186 54.0341 42.2549 54.0556 42.1556 C 54.3397 40.7864 54.8425 36.1449 54.8198 33.8726 C 54.7678 28.6927 56.319 26.6331 52.5748 22.1075 C 51.6334 20.9697 50.2013 19.6354 48.9719 18.7871 C 49.6193 18.956 50.1224 19.0313 50.8496 19.3901 C 49.2504 18.0979 47.8308 17.3926 46.6311 16.7745 C 47.2085 16.8636 47.9457 17.0504 48.547 17.1459 C 44.6695 15.2292 42.0277 15.0042 39.4916 15.0214 L 38.8504 15.0902 C 37.7347 15.0975 37.2789 15.1574 36.4791 15.3268 C 33.979 15.2149 30.4686 14.9054 26.9353 16.6193 C 27.4353 16.5913 27.859 16.5724 28.2583 16.5684 C 26.6759 17.3059 24.9138 18.2577 22.9381 20.3951 C 23.3852 20.1498 23.7771 19.9377 24.1593 19.759 C 22.6505 21.1841 20.9728 23.4404 20.1647 25.5042 C 19.2786 27.7672 19.4735 37.7418 19.8186 39.4728 C 20.137 41.0694 19.8313 42.1057 19.7971 42.2444 C 19.7844 42.2371 19.7844 42.2247 19.7717 42.2189 C 19.5439 42.1094 19.1889 41.9858 18.9148 42.1085 C 18.6428 42.2525 18.5441 42.5071 18.4908 42.7781 C 18.3939 43.2258 18.5035 43.6481 18.5926 44.0501 C 18.7349 44.7209 18.904 45.374 19.059 45.8822 C 19.1155 46.0674 19.1861 46.2534 19.2542 46.4674 C 19.3216 46.6782 19.3822 46.9033 19.4153 47.1459 C 19.4486 47.3884 19.4624 47.663 19.4831 47.9177 C 19.5019 48.1524 19.4959 48.3638 19.517 48.5961 C 19.5315 48.7665 19.5351 48.9393 19.5762 49.105 C 19.6213 49.2785 19.6906 49.4224 19.7783 49.5598 C 19.7857 49.5707 19.7973 49.6003 19.8038 49.6107 C 19.822 49.7518 19.9704 49.9506 19.9729 50.2585 C 19.9747 50.4971 20.0577 50.7789 20.0328 51.0551 C 20.0084 51.3313 19.9686 51.6023 19.9309 51.8615 C 19.9033 52.0486 19.8818 52.2269 19.8762 52.388 C 19.8707 52.5028 19.8853 52.6387 19.9016 52.7696 C 19.938 53.0741 20.0355 53.3548 20.2207 53.6367 C 20.3293 53.8044 20.2682 53.8146 20.4477 53.9023 C 20.6012 53.9756 20.7398 54.028 20.89 54.0471 C 21.0854 54.0723 21.2829 54.0987 21.442 54.1489 C 21.6596 54.2174 21.8199 54.2655 21.9904 54.3994 C 22.2263 54.5846 22.4262 54.7126 22.7658 54.9617 C 22.7929 55.0472 22.8489 55.1137 22.8768 55.2063 C 22.9715 55.5211 23.1184 55.909 23.2839 56.2749 C 23.5357 56.8309 23.8917 57.4603 24.2259 58.0394 L 24.2386 58.3101 C 25.5071 63.9506 24.6006 68.5721 22.1552 72.0892 C 26.3718 80.7155 33.0099 79.9357 38.8704 80.2223 C 44.6177 80.5034 53.3245 75.4699 52.7386 72.0383 C 50.7676 68.697 50.3798 64.0023 50.9222 59.8642 C 51.0749 58.7371 51.1944 58.2936 51.4664 57.7183 C 51.7161 57.1647 51.8832 56.8555 52.1181 56.3689 C 52.4422 55.6955 52.6166 55.0107 52.7287 54.4352 C 52.7451 54.3539 52.7651 54.2517 52.7984 54.1488 C 52.8975 54.0785 53.0217 54.0154 53.0811 53.9773 C 53.2562 53.8645 53.515 53.7112 53.819 53.5956 C 53.909 53.5618 54.002 53.5303 54.0989 53.4683 C 54.2027 53.3998 54.2857 53.2881 54.3533 53.1884 C 54.5386 52.9194 54.6589 52.6131 54.7095 52.2979 C 54.7568 51.9966 54.8089 51.7356 54.7995 51.5053 C 54.7987 51.4784 54.8003 51.4571 54.7995 51.4289 C 54.7868 51.1306 54.7028 50.7478 54.7348 50.3857 C 54.7662 50.0277 54.8415 49.6732 54.913 49.4188 C 54.9843 49.1645 55.0323 49.096 55.0797 48.9659 L 55.0797 48.9659 L 55.0797 48.966 L 55.0797 48.966 L 55.0798 48.966 L 55.0797 48.966 L 55.0778 48.966 Z"/>
 </g>
 <g>
  <title>Layer 4</title>
  <path fill="#87aade" id="imagebot_3" d="M 39.3544 14.8261 C 38.2386 14.8334 37.279 14.9365 36.4793 15.106 C 33.8073 14.7793 29.5956 14.9182 26.2254 16.8362 C 26.7255 16.8082 27.1492 16.7891 27.5485 16.7853 C 25.9661 17.5228 24.1556 18.7952 22.1799 20.9326 C 22.627 20.6873 23.0444 20.4753 23.4266 20.2965 C 21.9178 21.7216 20.698 23.4487 19.8899 25.5125 C 19.0039 27.7754 19.2904 37.7501 19.6355 39.4811 C 19.9539 41.0777 19.7461 42.014 19.7119 42.1527 C 19.6992 42.1454 19.6992 42.1332 19.6864 42.1272 C 19.4586 42.0177 19.1464 41.9282 18.8722 42.0508 C 18.6002 42.1949 18.493 42.4923 18.4397 42.7632 C 18.3428 43.211 18.4524 43.6589 18.5415 44.0609 C 18.6838 44.7317 18.87 45.3591 19.025 45.8674 C 19.0815 46.0526 19.1352 46.2641 19.203 46.4781 C 19.2705 46.6888 19.3225 46.9225 19.3556 47.165 C 19.3889 47.4076 19.4112 47.6481 19.432 47.9029 C 19.4507 48.1376 19.4623 48.383 19.4829 48.6153 C 19.4974 48.7857 19.5173 48.9585 19.5593 49.1242 C 19.6044 49.2977 19.6751 49.4448 19.7628 49.5822 C 19.7701 49.5931 19.7814 49.5967 19.7883 49.6076 C 19.8065 49.7488 19.9194 49.9613 19.9223 50.2692 C 19.9241 50.5077 19.999 50.7817 19.9743 51.0579 C 19.9499 51.3341 19.9101 51.613 19.8725 51.8721 C 19.8448 52.0592 19.827 52.2454 19.8216 52.4064 C 19.8161 52.5212 19.8325 52.6317 19.847 52.7627 C 19.8834 53.0671 19.9261 53.3524 20.1113 53.6343 C 20.2199 53.802 20.329 53.8761 20.5084 53.9639 C 20.6619 54.0372 20.9026 54.1162 21.0528 54.1353 C 21.2482 54.1606 21.4535 54.187 21.6126 54.2372 C 21.8302 54.3058 21.9818 54.3919 22.096 54.4662 C 21.9878 54.3842 21.8233 54.2701 21.6126 54.1863 C 21.452 54.123 21.2723 54.0715 21.0783 54.0335 C 20.9313 54.0037 20.6847 53.9337 20.5593 53.862 C 20.4118 53.7818 20.332 53.7142 20.2385 53.558 C 20.0801 53.2881 20.0518 53.0409 20.0251 52.7626 C 20.0058 52.5718 20.0124 52.3661 20.0251 52.2029 C 20.0324 52.1052 20.0397 52.0125 20.0506 51.8976 C 20.0762 51.6507 20.0957 51.3616 20.1015 51.0834 C 20.107 50.8051 20.0208 50.5391 19.9986 50.2946 C 19.9733 50.015 19.8454 49.8093 19.8137 49.6585 C 19.8886 49.7676 19.9672 49.872 20.0427 49.9638 C 20.2644 50.2348 20.4361 50.4545 20.5516 50.6254 C 20.667 50.7961 20.7296 50.9052 20.7296 50.9052 C 20.7296 50.9052 20.6841 50.8018 20.5768 50.6254 C 20.4697 50.449 20.3042 50.1953 20.0934 49.9129 C 20.0083 49.7985 19.8932 49.6929 19.8135 49.5567 C 19.7339 49.4205 19.6691 49.2615 19.6355 49.0987 C 19.6022 48.9427 19.5933 48.7623 19.5846 48.5899 C 19.5718 48.3599 19.57 48.1411 19.5591 47.9029 C 19.5482 47.6531 19.5353 47.3892 19.5082 47.1396 C 19.4813 46.8899 19.4491 46.6596 19.3809 46.4272 C 19.2772 46.075 19.1861 45.7275 19.101 45.4348 C 18.9799 45.0184 18.8375 44.5477 18.7194 44.0354 C 18.6926 43.9163 18.6699 43.8003 18.643 43.6792 C 18.7168 43.8678 18.8081 43.9612 18.9483 44.1118 C 19.3226 44.5138 19.5844 44.1372 19.5844 44.1372 C 19.8896 44.3732 20.411 45.1197 21.3146 47.1142 C 21.2462 46.9787 21.1285 46.9266 21.0092 46.8597 C 20.7911 46.7373 20.3597 46.9448 20.3223 47.2668 C 20.2572 47.8263 20.701 49.3525 20.7548 49.0479 C 20.7952 48.8193 20.5111 48.0531 20.6784 47.6993 C 20.7655 47.5152 21.1187 47.4665 21.3909 47.572 C 21.4627 47.6001 21.4363 47.3977 21.3909 47.2667 C 21.3897 47.2612 21.3921 47.2451 21.3909 47.2413 C 20.694 45.381 20.0488 44.0815 19.508 43.4501 C 19.1878 43.0762 18.8504 42.88 18.6938 42.8904 C 18.6304 42.8959 18.5905 43.0035 18.5665 43.0939 C 18.5657 42.9959 18.572 42.9103 18.592 42.8141 C 18.6482 42.5588 18.7339 42.2841 18.9482 42.178 C 19.1505 42.0652 19.4152 42.1261 19.6352 42.2289 C 20.5841 42.6717 20.8796 43.326 21.3145 44.1245 C 21.5283 44.5171 21.9828 45.7886 22.2432 46.8342 C 22.1117 45.7125 21.7948 44.7564 21.6834 44.417 L 23.1464 44.4425 C 23.1592 44.7332 23.1826 45.0198 23.2483 45.3076 C 23.3514 45.7674 23.5733 46.2264 23.9353 46.5543 C 24.4216 46.9836 25.0454 47.16 25.64 47.3176 C 26.6048 47.5793 27.5965 47.6974 28.5915 47.6993 C 29.9009 47.7029 31.2159 47.6069 32.5098 47.394 C 32.9689 47.3185 33.4326 47.2263 33.8837 47.0886 C 34.035 47.0426 34.1927 47.007 34.3417 46.9359 C 34.4327 46.8959 34.5347 46.8313 34.6216 46.7323 C 34.8606 46.4364 34.9706 46.0767 35.0542 45.74 C 35.1549 45.3491 35.21 44.9581 35.2832 44.5696 C 35.3339 44.2971 35.3243 43.9954 35.2577 43.73 C 36.0168 43.1607 36.94 43.0944 37.395 43.0939 C 37.8685 43.0934 38.6613 43.2668 39.405 43.6536 C 39.4062 43.7633 39.4105 43.8762 39.4305 43.9844 C 39.5087 44.3718 39.6043 44.7653 39.7104 45.1549 C 39.7984 45.4904 39.9 45.8544 40.1429 46.1471 C 40.2311 46.245 40.3313 46.3119 40.4228 46.3507 C 40.5728 46.4198 40.729 46.4594 40.8808 46.5033 C 41.3337 46.6349 41.7946 46.7139 42.2547 46.7832 C 43.5514 46.979 44.8638 47.058 46.1731 47.0376 C 47.1679 47.023 48.1633 46.9048 49.1245 46.6305 C 49.717 46.465 50.3487 46.252 50.8293 45.8163 C 51.1868 45.4835 51.3938 45.0307 51.4908 44.5696 C 51.5532 44.2781 51.5854 43.9726 51.5926 43.679 L 53.6013 43.2465 C 53.3722 43.6931 53.1744 44.3784 52.992 45.1039 C 53.2527 44.3983 53.6691 43.5411 53.9335 43.0938 C 53.9995 42.982 54.169 42.7156 54.3405 42.5595 C 54.5128 42.4037 54.7081 42.2487 54.9258 42.1015 C 55.0758 42.0006 55.2377 41.9094 55.4092 41.8471 C 55.6344 41.7707 55.8914 41.681 56.0707 41.7962 C 56.1893 41.8574 56.2763 41.982 56.3252 42.1269 C 56.2735 42.102 56.2008 42.1002 56.1216 42.1015 C 55.9355 42.1051 55.6656 42.1859 55.3583 42.4323 C 54.7315 42.9345 54.1778 44.0418 53.3228 46.7577 C 53.3101 46.7984 53.3101 46.8433 53.2973 46.885 C 53.2864 46.9588 53.2991 47.0545 53.3483 47.0377 C 53.7947 46.8812 54.1321 47.0322 54.1879 47.394 C 54.247 47.7768 53.769 48.4545 53.8826 48.5389 C 53.9992 48.6255 54.1587 48.261 54.2897 47.9537 C 54.4381 47.6057 54.5593 47.2944 54.5441 47.0123 C 54.5079 46.3413 53.9982 45.9981 53.5773 46.4016 C 54.5579 43.9118 54.9942 43.3602 55.3074 43.1449 C 55.3074 43.1449 55.4344 43.4476 55.8926 43.1449 C 56.095 43.0112 56.305 42.8515 56.4015 42.636 C 56.4222 42.9761 56.3601 43.3162 56.2997 43.6537 C 56.1751 44.3395 55.9903 44.9701 55.8162 45.4857 C 55.763 45.6433 55.7026 45.8154 55.6382 45.9945 C 55.5582 46.2179 55.5074 46.4545 55.4602 46.707 C 55.4129 46.9595 55.3669 47.2352 55.3329 47.4957 C 55.301 47.7373 55.2883 47.9713 55.2565 48.2081 C 55.2328 48.382 55.1985 48.5603 55.1546 48.717 C 55.1123 48.8769 55.0297 49.0011 54.9256 49.1241 C 54.8216 49.2471 54.7026 49.379 54.5949 49.4803 C 54.463 49.6029 54.3414 49.7037 54.2387 49.8111 C 54.1359 49.9186 54.0498 50.0062 53.9842 50.091 C 54.052 50.0128 54.1619 49.9339 54.2641 49.8366 C 54.3712 49.7345 54.4827 49.6232 54.6203 49.5058 C 54.7327 49.4105 54.8634 49.2989 54.9765 49.175 C 55.0896 49.0512 55.1982 48.919 55.2564 48.7425 C 55.309 48.5786 55.3284 48.4059 55.3582 48.2336 C 55.3992 47.998 55.4455 47.7618 55.4855 47.5212 C 55.5279 47.2677 55.5605 47.0027 55.6128 46.7579 C 55.6652 46.513 55.7331 46.2879 55.8164 46.0709 C 55.9362 45.7574 56.0362 45.4504 56.1217 45.1804 C 56.2588 44.7472 56.3882 44.2276 56.4779 43.6792 C 56.5454 43.2733 56.6063 42.8402 56.5289 42.407 C 56.4854 42.1372 56.3983 41.8367 56.1472 41.6946 C 56.0537 41.6464 55.9405 41.6186 55.8419 41.6182 C 55.6775 41.6174 55.5273 41.6858 55.3839 41.7455 C 55.2009 41.8197 55.023 41.9175 54.875 42.0254 C 54.7499 42.1165 54.6535 42.2102 54.5442 42.3053 L 54.1626 42.356 C 54.1924 42.2729 54.2184 42.1754 54.2389 42.0761 C 54.5231 40.7069 55.2794 36.1555 55.2567 33.8832 C 55.2048 28.7033 56.4565 26.552 52.7123 22.0265 C 51.771 20.8887 50.6595 19.8725 49.4301 19.0241 C 50.0774 19.1931 50.7637 19.4541 51.491 19.8129 C 49.8917 18.5207 48.518 17.6322 47.3182 17.014 C 47.8957 17.1032 48.4725 17.1985 49.0739 17.2939 C 45.1964 15.3772 41.8904 14.8086 39.3544 14.8259 L 39.3544 14.8259 L 39.3544 14.8261 Z M 45.3591 24.3166 C 46.7128 24.3178 47.8201 24.6062 48.4887 25.487 C 50.4336 28.0496 50.9767 29.9318 51.2112 32.1024 C 51.4457 34.273 51.3992 35.8625 52.1526 37.0639 C 52.8533 38.1814 53.0048 41.5458 52.8904 42.4835 L 51.3893 42.6362 C 51.3152 42.5069 51.2432 42.4073 51.1348 42.3054 C 50.8053 41.9979 50.3885 41.8028 49.9899 41.6439 C 49.3063 41.369 48.5712 41.2455 47.8526 41.1605 C 47.2384 41.0872 46.6379 41.0428 46.0206 41.0332 C 45.5313 41.0259 45.0256 41.0615 44.5449 41.1096 C 43.9612 41.1676 43.3929 41.2414 42.8147 41.3385 C 42.2811 41.4282 41.7381 41.5292 41.2118 41.6693 C 41.0092 41.7231 40.8012 41.798 40.6011 41.8728 C 40.4637 41.9232 40.3284 41.9834 40.194 42.0764 C 39.8641 42.3089 39.6267 42.6349 39.5071 43.0178 C 39.4754 43.1187 39.4467 43.2179 39.4307 43.3231 C 38.822 43.016 37.9781 42.8354 37.3188 42.8397 C 36.6367 42.8452 35.6276 43.0948 35.1561 43.4249 C 35.019 43.1172 34.7998 42.8278 34.52 42.6362 C 34.3845 42.545 34.2256 42.5067 34.0875 42.4581 C 33.8865 42.3859 33.6801 42.3312 33.4768 42.2801 C 32.9487 42.147 32.4341 42.0318 31.8993 41.9493 C 31.3199 41.8599 30.7282 41.7958 30.1437 41.7458 C 29.6624 41.7043 29.1826 41.681 28.6934 41.6948 C 28.0763 41.713 27.4492 41.7407 26.836 41.8221 C 26.1186 41.9167 25.4041 42.0725 24.7242 42.3564 C 24.3277 42.5207 23.9046 42.7061 23.5792 43.018 C 23.3716 43.2184 23.2323 43.4717 23.1721 43.7559 L 22.2816 43.7049 C 22.0731 43.1209 21.4725 41.3249 21.6201 40.3209 C 21.7648 39.336 22.4471 39.3276 22.536 37.9038 C 22.625 36.48 22.2799 31.2506 22.7141 29.7872 C 23.1484 28.3239 25.0735 25.3454 26.7851 24.8257 C 29.7443 23.9272 32.1604 25.6604 36.4791 25.4872 C 39.3133 25.3736 42.7746 24.3135 45.359 24.3168 L 45.3589 24.3169 Z M 45.2827 41.2876 C 45.521 41.273 45.7584 41.2821 45.9952 41.2876 C 46.605 41.2967 47.2226 41.3171 47.8271 41.3894 C 48.5367 41.4749 49.2378 41.6095 49.8881 41.8729 C 50.2764 42.0316 50.6686 42.2089 50.9567 42.4835 C 51.1825 42.6973 51.3336 42.9945 51.3383 43.2977 C 51.3474 43.7135 51.322 44.1223 51.2365 44.519 C 51.1425 44.9446 50.9617 45.3576 50.6513 45.6385 C 50.23 46.0313 49.6588 46.2308 49.0738 46.4019 C 48.1384 46.6695 47.1507 46.768 46.1732 46.7835 C 44.8758 46.8035 43.5869 46.7481 42.3058 46.5545 C 41.8503 46.4856 41.3932 46.4019 40.9572 46.2746 C 40.8108 46.2317 40.6567 46.1833 40.5247 46.1221 C 40.4396 46.0793 40.3588 46.0453 40.3211 45.9948 C 40.1173 45.7609 40.033 45.4349 39.9395 45.1042 C 39.9268 45.0593 39.9249 44.9967 39.9142 44.9515 C 39.9458 44.8614 39.9348 44.7115 39.9142 44.5189 C 40.0497 44.4498 40.1262 44.2929 40.0922 44.1373 C 40.0579 43.9796 39.916 43.8612 39.7615 43.8574 C 39.7253 43.7572 39.6989 43.668 39.6596 43.603 C 39.6598 43.5848 39.6589 43.5702 39.6596 43.552 L 39.6596 43.4757 C 39.6706 43.3456 39.6973 43.2188 39.736 43.094 C 39.8397 42.7625 40.0639 42.4773 40.3467 42.2798 C 40.4485 42.2069 40.5701 42.1525 40.7029 42.1018 C 40.8915 42.031 41.0896 41.9767 41.2881 41.9237 C 41.8034 41.7864 42.3107 41.6821 42.8402 41.593 C 43.4131 41.4966 43.9925 41.4213 44.5703 41.364 C 44.8091 41.3403 45.0445 41.3029 45.2827 41.2876 L 45.2827 41.2875 Z M 28.6934 41.9237 C 28.8118 41.9201 28.9309 41.9225 29.0496 41.9237 C 29.4059 41.9292 29.7597 41.9695 30.1183 42.0001 C 30.6968 42.0497 31.2743 42.1148 31.8485 42.2036 C 32.379 42.2856 32.9089 42.3784 33.426 42.5089 C 33.6251 42.5593 33.8216 42.6188 34.0112 42.687 C 34.1446 42.7359 34.2646 42.7935 34.3674 42.865 C 34.6528 43.0588 34.8699 43.3491 34.978 43.6792 C 35.0318 43.8451 35.0755 44.0149 35.0799 44.1881 C 35.0417 44.2536 34.9875 44.3421 34.9526 44.4425 C 34.7963 44.448 34.6544 44.5627 34.6218 44.7224 C 34.5903 44.8764 34.692 45.01 34.8253 45.0786 C 34.8068 45.2733 34.818 45.4464 34.8508 45.5366 C 34.8399 45.5835 34.8119 45.6173 34.7999 45.6639 C 34.7108 45.9958 34.6189 46.3434 34.4182 46.5799 C 34.3813 46.631 34.3246 46.663 34.2402 46.7072 C 34.1091 46.7703 33.9536 46.815 33.8076 46.8599 C 33.3733 46.993 32.939 47.0648 32.4846 47.1398 C 31.2061 47.3504 29.8892 47.4479 28.5917 47.4451 C 27.614 47.4433 26.6554 47.3442 25.7165 47.0889 C 25.1293 46.9256 24.5146 46.7382 24.0882 46.3511 C 23.774 46.0743 23.6027 45.6813 23.5029 45.257 C 23.4115 44.8614 23.3971 44.4261 23.4011 44.0102 C 23.4019 43.707 23.5344 43.4128 23.7573 43.196 C 24.0417 42.9176 24.4143 42.7492 24.8005 42.5854 C 25.4471 42.3134 26.1531 42.1716 26.8615 42.0765 C 27.4649 41.9961 28.0837 41.9414 28.6934 41.9238 L 28.6934 41.9238 Z"/>
 </g>
 <g>
  <title>Layer 5</title>
  <path fill="#3062ad" id="imagebot_2" d="M 30.7938 62.9836 C 30.7938 62.9836 33.6679 67.5411 37.8558 67.6642 C 42.0438 67.7874 46.1496 62.8604 46.1496 62.8604 C 46.1496 62.8604 42.9881 67.9516 38.3485 67.9516 C 33.7089 67.9516 30.7938 62.9836 30.7938 62.9836 Z"/>
 </g>
</svg>